<svg width="24" height="24" viewBox="0 0 24 24" fill="none" xmlns="http://www.w3.org/2000/svg">
<path fill-rule="evenodd" clip-rule="evenodd" d="M12.5 7C11.6716 7 11 7.67157 11 8.5C11 9.32843 11.6716 10 12.5 10C13.3284 10 14 9.32843 14 8.5C14 7.67157 13.3284 7 12.5 7ZM9 8.5C9 6.567 10.567 5 12.5 5C14.433 5 16 6.567 16 8.5C16 10.433 14.433 12 12.5 12C10.567 12 9 10.433 9 8.5Z" fill="white"/>
<path fill-rule="evenodd" clip-rule="evenodd" d="M12.5 1C10.8932 0.999167 9.3285 1.51443 8.03656 2.46989L12.5 1ZM12.4994 3C11.3209 2.9993 10.1733 3.37716 9.22577 4.07792C8.27823 4.77868 7.58083 5.76526 7.23634 6.89231C7.23232 6.90548 7.22802 6.91857 7.22345 6.93156C6.96975 7.65345 6.79438 8.24459 6.6374 8.77377C6.62997 8.79881 6.62259 8.8237 6.61524 8.84846C6.45541 9.38691 6.30304 9.89598 6.10031 10.3815C5.66942 11.4136 5.04278 12.2663 3.77238 13.4202C3.75988 13.4316 3.74708 13.4426 3.73402 13.4533C3.41519 13.7147 3.18493 14.0682 3.07476 14.4655C2.96458 14.8628 2.97987 15.2844 3.11853 15.6727C3.25719 16.0609 3.51245 16.3968 3.84937 16.6344C4.18629 16.8721 4.58841 16.9997 5.00068 17C8.73756 16.9998 12.9161 15.3016 15.7598 12.9318C15.773 12.9208 15.7864 12.9102 15.8 12.9C16.7235 12.2074 17.4057 11.2418 17.7498 10.1399C18.094 9.03808 18.0828 7.85586 17.7178 6.76075C17.3527 5.66563 16.6524 4.71313 15.7159 4.03817C14.7795 3.36321 13.6538 3 12.4994 3ZM12.5 1C14.0739 1.00013 15.6085 1.4954 16.8853 2.41568C18.1623 3.33609 19.1174 4.63495 19.6151 6.12829C20.1129 7.62163 20.1282 9.23374 19.6589 10.7363C19.1921 12.2305 18.2696 13.5409 17.0209 14.4843C13.8653 17.106 9.25428 19 5.00002 19C4.17547 18.9995 3.37057 18.7441 2.69673 18.2689C2.02289 17.7937 1.51237 17.1219 1.23505 16.3453C0.957721 15.5688 0.927143 14.7256 1.1475 13.931C1.3654 13.1453 1.81815 12.4452 2.44479 11.9242C3.56144 10.9074 3.97206 10.288 4.25472 9.61097C4.40949 9.24027 4.53337 8.83372 4.69792 8.27935C4.70578 8.25288 4.71371 8.22614 4.72172 8.19913C4.87723 7.67485 5.06302 7.04847 5.32993 6.2874C5.80184 4.75897 6.75014 3.42126 8.03656 2.46989" fill="white"/>
<path d="M5.11653 19.6727C4.97786 19.2844 4.96257 18.8628 5.07275 18.4655L2 17.5L3.23304 20.3454C3.51037 21.1219 4.02089 21.7937 4.69473 22.2689C5.36857 22.7441 6.17346 22.9995 6.99801 23C11.2523 23 15.8633 21.1061 19.0189 18.4843C20.2676 17.541 21.1901 16.2305 21.6569 14.7363C22.1262 13.2338 22.1109 11.6217 21.6131 10.1283C21.1154 8.63497 18.5 4 18.5 4L19.5 10.5C19.865 11.5951 20.092 13.0381 19.7478 14.1399C19.4036 15.2418 18.7215 16.2074 17.798 16.9C17.7843 16.9103 17.7709 16.9209 17.7578 16.9318C14.9141 19.3016 10.7356 20.9998 6.99868 21C6.5864 20.9997 6.18429 20.8721 5.84737 20.6345C5.51045 20.3969 5.25519 20.061 5.11653 19.6727Z" fill="white"/>
</svg>
